<svg xmlns="http://www.w3.org/2000/svg" xmlns:xlink="http://www.w3.org/1999/xlink" version="1.1" baseProfile="full" viewBox="0 0 200 200" width="200" height="200">
<g fill="black">
<path d="M 140.0 184.2 L 126.1 181.7 L 114.3 178.4 L 104.6 174.3 L 96.7 169.4 L 90.6 163.6 L 86.2 157.3 L 83.91366910934448 151.66582736968994 L 81.9 156.7 L 78.4 163.6 L 74.3 170.0 L 69.8 175.7 L 64.7 180.8 L 59.0 185.1 L 52.9 188.7 L 51.9 187.2 L 56.5 182.3 L 60.8 177.1 L 64.5 171.7 L 67.9 165.9 L 70.8 159.8 L 73.3 153.2 L 75.3 146.2 L 77.0 138.8 L 78.1 130.8 L 78.80475816726684 123.40003967285156 L 78.8 123.4 L 79.1 120.2 L 90.8 123.5 L 93.6 125.8 L 90.19424924850463 127.43738021850587 L 89.4 132.6 L 87.4 141.1 L 85.84616832733154 146.13441467285156 L 87.3 148.7 L 91.1 154.0 L 95.7 158.5 L 101.4 162.4 L 108.5 165.8 L 113.7 167.51363639831544 L 113.7 112.0 L 79.5 112.0 L 79.5 108.0 L 113.7 108.0 L 113.7 88.0 L 69.8 88.0 L 69.8 84.0 L 113.7 84.0 L 113.7 64.0 L 79.5 64.0 L 79.5 60.0 L 113.7 60.0 L 113.7 42.0 L 69.8 42.0 L 69.8 38.0 L 113.7 38.0 L 113.7 13.0 L 125.7 15.0 L 128.7 17.0 L 125.7 18.8 L 125.7 38.0 L 159.5 38.0 L 169.5 28.0 L 181.5 38.0 L 181.5 42.0 L 125.7 42.0 L 125.7 60.0 L 149.5 60.0 L 155.5 55.0 L 166.5 64.0 L 161.5 68.0 L 161.5 84.0 L 168.71818180084227 84.0 L 176.9 75.0 L 186.9 84.0 L 186.9 88.0 L 161.5 88.0 L 161.5 118.0 L 149.5 124.0 L 149.5 112.0 L 125.7 112.0 L 125.7 142.0 L 149.7 142.0 L 159.7 132.0 L 171.7 142.0 L 171.7 146.0 L 125.7 146.0 L 125.7 170.3954128265381 L 128.2 170.9 L 141.3 172.4 L 156.8 173.3 L 175.0 173.4 L 186.9 173.4 L 175.0 186.6 L 156.2 185.8 Z M 41.2 186.9 L 37.2 184.8 L 35.7 180.5 L 36.2 173.5 L 36.2 167.2 L 35.5 161.4 L 34.3 156.3 L 32.5 151.7 L 30.2 147.5 L 27.2 143.7 L 23.5 140.2 L 19.0 137.0 L 13.7 134.1 L 14.2 132.4 L 20.5 133.5 L 26.3 135.6 L 31.5 138.7 L 34.22633981704712 141.06282777786254 L 34.3 140.9 L 36.6 135.3 L 39.5 128.4 L 43.0 120.0 L 47.0 110.3 L 51.5 99.1 L 56.7 86.6 L 62.5 72.8 L 69.0 57.6 L 70.7 58.3 L 66.1 74.1 L 61.7 88.5 L 57.7 101.4 L 54.1 112.8 L 51.0 122.9 L 48.3 131.5 L 46.1 138.8 L 44.4 144.6 L 43.1 149.0 L 42.427148246765135 151.88365020751954 L 43.0 152.9 L 45.3 159.1 L 46.8 166.0 L 47.6 173.4 L 47.7 181.4 L 45.5 185.5 Z M 125.7 88.0 L 125.7 108.0 L 149.5 108.0 L 149.5 88.0 Z M 31.9 85.5 L 30.5 83.5 L 28.7 81.4 L 26.7 79.3 L 24.4 77.3 L 21.7 75.2 L 18.8 73.1 L 15.7 70.9 L 12.1 69.1 L 12.7 67.4 L 16.7 68.4 L 20.6 69.2 L 24.3 70.2 L 27.7 71.5 L 31.0 73.0 L 34.1 74.6 L 36.9 76.5 L 39.6 78.5 L 42.0 80.8 L 44.2 83.2 L 44.9 87.8 L 42.2 91.5 L 37.7 92.2 L 34.0 89.6 L 33.1 87.6 Z M 125.7 64.0 L 125.7 84.0 L 149.5 84.0 L 149.5 64.0 Z M 48.0 37.8 L 46.7 35.9 L 45.0 33.9 L 43.1 31.8 L 40.8 29.7 L 38.2 27.6 L 35.3 25.4 L 32.2 23.1 L 28.6 21.2 L 29.3 19.5 L 33.3 20.6 L 37.2 21.6 L 40.8 22.7 L 44.2 24.0 L 47.4 25.5 L 50.4 27.1 L 53.1 28.9 L 55.7 30.8 L 58.0 32.9 L 60.0 35.3 L 60.7 39.8 L 58.0 43.5 L 53.5 44.2 L 49.8 41.5 L 49.0 39.7 Z " />
</g>
</svg>
