<svg xmlns="http://www.w3.org/2000/svg" xmlns:xlink="http://www.w3.org/1999/xlink" version="1.1" baseProfile="full" viewBox="0 0 200 200" width="200" height="200">
<g fill="black">
<path d="M 110.7 177.0 L 130.7 177.0 L 131.9 176.9 L 132.8 176.7 L 133.7 176.4 L 134.1 176.0 L 134.4 175.1 L 134.6 174.2 L 134.7 173.0 L 134.7 67.0 L 146.7 69.0 L 149.7 71.0 L 146.7 72.8 L 146.7 173.0 L 146.5 175.5 L 146.1 178.0 L 145.3 180.4 L 144.1 182.7 L 142.4 184.7 L 140.4 186.3 L 138.1 187.6 L 135.7 188.4 L 133.2 188.8 L 130.7 189.0 L 130.7 183.0 L 110.7 180.0 Z M 13.5 188.4 L 11.2 184.5 L 12.1 180.0 L 13.8 178.0 L 15.5 175.7 L 17.0 173.0 L 18.5 169.9 L 19.8 166.4 L 21.1 162.6 L 22.2 158.5 L 23.3 154.0 L 24.3 149.1 L 25.1 144.0 L 26.9 144.0 L 27.5 149.3 L 28.0 154.3 L 28.2 159.2 L 28.1 163.8 L 27.7 168.2 L 27.1 172.4 L 26.2 176.4 L 25.0 180.1 L 23.6 183.7 L 21.9 187.0 L 18.0 189.4 Z M 60.5 168.6 L 60.1 165.9 L 59.5 163.3 L 58.8 160.7 L 57.8 158.0 L 56.7 155.3 L 55.4 152.6 L 54.0 149.8 L 52.1 147.3 L 53.3 146.0 L 55.9 148.0 L 58.6 150.0 L 61.1 152.2 L 63.4 154.6 L 65.5 157.1 L 67.3 159.8 L 69.0 162.7 L 70.4 165.7 L 71.7 168.8 L 72.7 172.1 L 71.5 176.5 L 67.6 178.9 L 63.2 177.8 L 60.8 173.9 L 60.7 171.2 Z M 43.6 182.9 L 39.6 180.7 L 38.3 176.3 L 38.8 174.1 L 39.3 171.7 L 39.6 169.2 L 39.7 166.5 L 39.7 163.7 L 39.5 160.7 L 39.2 157.6 L 38.8 154.2 L 38.3 150.7 L 37.2 147.2 L 38.9 146.5 L 40.7 149.7 L 42.7 152.8 L 44.4 155.9 L 45.9 159.1 L 47.2 162.2 L 48.2 165.3 L 49.0 168.4 L 49.6 171.5 L 50.0 174.6 L 50.2 177.6 L 48.0 181.6 Z M 80.7 161.6 L 79.6 159.1 L 78.5 156.7 L 77.2 154.4 L 75.7 152.0 L 74.1 149.7 L 72.4 147.3 L 70.2 145.3 L 71.2 143.8 L 73.9 145.2 L 76.8 146.6 L 79.5 148.2 L 82.0 150.0 L 84.4 152.1 L 86.7 154.3 L 88.8 156.7 L 90.7 159.3 L 91.25773401260376 160.1675862312317 L 91.8 159.1 L 94.9 152.8 L 97.8 146.5 L 100.5 140.2 L 103.0 133.9 L 105.3 127.6 L 107.3 121.2 L 109.1 114.7 L 110.7 108.2 L 111.8003936767578 102.61338586807251 L 111.7 102.6 L 112.4 99.8 L 123.7 104.2 L 126.2 106.8 L 122.59150400161744 108.02431116104125 L 121.7 111.1 L 119.4 117.9 L 116.8 124.6 L 113.9 131.1 L 110.8 137.4 L 107.3 143.6 L 103.5 149.7 L 99.4 155.5 L 95.0 161.1 L 93.08954582214355 163.2053984642029 L 94.1 165.1 L 93.9 169.6 L 90.6 172.8 L 86.0 172.5 L 82.9 169.2 L 82.3 166.6 Z M 173.9 145.9 L 172.1 139.8 L 170.2 133.9 L 168.1 128.2 L 165.8 122.7 L 163.4 117.2 L 160.8 111.9 L 155.4 101.3 L 156.8 100.2 L 161.2 104.4 L 165.3 108.9 L 169.1 113.9 L 172.6 119.1 L 175.8 124.6 L 178.8 130.3 L 181.5 136.3 L 184.1 142.5 L 186.4 149.0 L 188.4 155.6 L 187.7 160.1 L 184.0 162.9 L 179.5 162.1 L 176.8 158.4 L 175.4 152.1 Z M 21.8 138.0 L 21.8 65.19210529327393 L 20.9 66.4 L 16.8 71.1 L 12.4 75.5 L 11.0 74.4 L 13.7 69.0 L 19.1 58.0 L 21.8 52.3 L 24.4 46.5 L 26.9 40.5 L 29.4 34.4 L 31.7 28.1 L 34.0 21.6 L 35.816526222229 15.804416465759278 L 35.8 15.8 L 36.6 13.4 L 47.4 18.9 L 49.6 21.8 L 45.91289234161377 22.511547088623047 L 44.6 25.7 L 41.6 32.2 L 41.2063491821289 33.0 L 63.9 33.0 L 69.9 28.0 L 80.9 37.0 L 75.9 40.0 L 73.11724138259888 41.15948276519775 L 72.6 42.0 L 70.7 44.7 L 68.6 47.4 L 66.2 50.2 L 63.5 53.1 L 60.5 56.0 L 57.3 59.1 L 53.7 62.2 L 51.741176509857176 64.0 L 73.7 64.0 L 79.7 59.0 L 90.7 68.0 L 85.7 72.0 L 85.7 132.0 L 73.7 138.0 L 73.7 132.0 L 33.8 132.0 Z M 33.8 100.0 L 33.8 128.0 L 47.8 128.0 L 47.8 100.0 Z M 59.8 100.0 L 59.8 128.0 L 73.7 128.0 L 73.7 100.0 Z M 132.3 19.3 L 134.8 22.0 L 131.20564975738526 23.091142082214354 L 129.5 29.0 L 126.4 38.3 L 123.1 47.2 L 119.6 55.6 L 119.4123456954956 56.0 L 173.8 56.0 L 174.31789474487306 55.568421077728274 L 174.7 54.7 L 175.0739999771118 54.93833332061767 L 179.8 51.0 L 190.8 60.0 L 185.8 63.0 L 182.02580642700195 64.5725806236267 L 181.3 65.5 L 179.3 67.9 L 177.1 70.5 L 174.9 73.3 L 172.5 76.2 L 170.0 79.3 L 167.3 82.5 L 164.3 85.8 L 161.4 89.4 L 159.9 88.5 L 161.8 84.3 L 163.4 80.1 L 165.1 76.3 L 166.7 72.6 L 168.2 69.1 L 169.7 65.9 L 171.1 62.8 L 172.3551724433899 60.0 L 117.53580245971679 60.0 L 115.8 63.7 L 111.7 71.2 L 107.4 78.3 L 102.8 85.0 L 97.9 91.0 L 92.6 96.5 L 91.2 95.4 L 94.8 88.9 L 98.3 82.1 L 101.7 75.2 L 104.9 67.9 L 108.0 60.2 L 110.9 52.2 L 113.6 43.9 L 116.2 35.1 L 118.5 26.0 L 120.4661054611206 17.509999179840086 L 120.4 17.5 L 121.1 14.8 Z M 33.8 68.0 L 33.8 96.0 L 47.8 96.0 L 47.8 68.0 Z M 59.8 68.0 L 59.8 96.0 L 73.7 96.0 L 73.7 68.0 Z M 39.2380952835083 37.0 L 38.5 38.5 L 35.3 44.5 L 31.9 50.4 L 28.4 56.0 L 25.657342624664306 59.92867136001587 L 33.8 64.0 L 48.810000038146974 64.0 L 51.4 60.3 L 53.8 56.2 L 56.0 52.5 L 58.0 49.0 L 59.7 45.7 L 61.1 42.7 L 62.3 39.9 L 63.2 37.3 L 63.28181819915771 37.0 Z " />
</g>
</svg>
